<svg xmlns="http://www.w3.org/2000/svg" viewBox="0 0 16 16" width="32" height="32">
  <path
    d="M0.9556642857142857 0.2115857142857143C1.4280857142857144 0.06810714285714285 1.9390035714285712 0.25007857142857143 2.211957142857143 0.6630107142857142L8 9.341574999999999 13.788042857142857 0.6595107142857143c0.2729535714285714 -0.40943214285714286 0.7838714285714286 -0.5949035714285714 1.256292857142857 -0.451425s0.7943678571428571 0.5809035714285714 0.7943678571428571 1.0743214285714284v13.43777857142857c0 0.6193964285714285 -0.5004178571428571 1.1198142857142857 -1.1198142857142857 1.1198142857142857s-1.1198142857142857 -0.5004178571428571 -1.1198142857142857 -1.1198142857142857V4.9812964285714285L8.930846428571428 11.983639285714284c-0.20646785714285715 0.3114464285714285 -0.5564071428571428 0.49691785714285713 -0.9308464285714285 0.49691785714285713s-0.7243821428571428 -0.18547142857142856 -0.9308464285714285 -0.49691785714285713L2.4009249999999995 4.9812964285714285v9.738889285714285c0 0.6193964285714285 -0.5004178571428571 1.1198142857142857 -1.1198142857142857 1.1198142857142857S0.16129642857142856 15.339582142857143 0.16129642857142856 14.720185714285714V1.2824071428571429c0 -0.49341785714285713 0.3219464285714286 -0.9273464285714285 0.7943678571428571 -1.0708214285714286Z"
    fill="#000000"
    stroke-width="0.0357"
  />
</svg>

